/* XPM */
static char *_3cb69a9812c4c9fc4a46654e85e2830XF1gxKkhSDekHNGm[] = {
/* columns rows colors chars-per-pixel */
"50 51 4 1 ",
"  c #373D30",
". c #FF0044",
"X c #DDFFB6",
"o c white",
/* pixels */
"XXXXXXXXXXXXXXXXXXXXXXXXXXXXXXXXXXXXXXXXXXXXXXXXXX",
"XXXXXXXXXXXXXXXXXXXXXXXXXXXXXXXXXXXXXXXXXXXXXXXXXX",
"XXXXXXXXXXXXXXXXXXXXXXXXXXXXXXXXXXXXXXXXXXXXXXXXXX",
"XXXXXXXXXXXXXXXXXXXXXX.....XXXXXXXXXXXXXXXXXXXXXXX",
"XXXXXXXXXXXXXXXXXX..........XXXXXXXXXXXXXXXXXXXXXX",
"XXXXXXXXXXXXXXXX.............XXXXXXXXXXXXXXXXXXXXX",
"XXXXXXXXXXXXXXX..............XXXXXXXXXXXXXXXXXXXXX",
"XXXXXXXXXXXXXX...............XXXXXXXXXXXXXXXXXXXXX",
"XXXXXXXXXXXXX.................XXXXXXXXXXXXXXXXXXXX",
"XXXXXXXXXXXXX.................XXXXXXXXXXXXXXXXXXXX",
"XXXXXXXXXXXXXX.................XXXXXXXXXXXXXXXXXXX",
"XXXXXXXXXXXXXXXXXXX............XXXXXXXXXXXXXXXXXXX",
"XXXXXXXXXXXXXXXXXXX.............XXXXXXXXXXXXXXXXXX",
"XXXXXXXXXXXXXXXXXXXX............XXXXXXXXXXXXXXXXXX",
"XXXXXXXXXXXXXXXXXXXX............XXXXXXXXXXXXXXXXXX",
"XXXXXXXXXXXXXXXXXXXX............XXXXXXXXXXXXXXXXXX",
"XXXXXXXXXXXXXXXXXXX............XXXXXXXXXXXXXXXXXXX",
"XXXXXXXXXXXXXXXXXXX.............XXXXXXXXXXXXXXXXXX",
"XXXXXXXXXXXXXXXXXXX...   .......XXXXXXXXXXXXXXXXXX",
"XXXXXXXXXXXXXXXXXXX... o .......XXXXXXXXXXXXXXXXXX",
"XXXXXXXXXXXXXXXXXXX...   .......XXXXXXXXXXXXXXXXXX",
"XXXXXXXXXXXXXXXXXXX.............XXXXXXXXXXXXXXXXXX",
"XXXXXXXXXXXXXXXXXXX..............XXXXXXXXXXXXXXXXX",
"XXXXXXXXXXXXXXXXXXXX.............XXXXXXXXXXXXXXXXX",
"XXXXXXXXXXXXXXXXXXXX.............XXXXXXXXXXXXXXXXX",
"XXXXXXXXXXXXXXXXXXXX   ..........XXXXXXXXXXXXXXXXX",
"XXXXXXXXXXXXXXXXXXXXoo  .........XXXXXXXXXXXXXXXXX",
"XXXXXXXXXXXXXXXXXXXXooo .........XXXXXXXXXXXXXXXXX",
"XXXXXXXXXXXXXXXXXXXXoo  .........XXXXXXXXXXXXXXXXX",
"XXXXXXXXXXXXXXXXXXXXo  ..........XXXXXXXXXXXXXXXXX",
"XXXXXXXXXXXXXXXXXXXX  ...........XXXXXXXXXXXXXXXXX",
"XXXXXXXXXXXXXXXXXXXX.............XXXXXXXXXXXXXXXXX",
"XXXXXXXXXXXXXXXXXXXX.............XXXXXXXXXXXXXXXXX",
"XXXXXXXXXXXXXXXXXXXX............XXXXXXXXXXXXXXXXXX",
"XXXXXXXXXXXXXXXXXXXXX...........XXXXXXXXXXXXXXXXXX",
"XXXXXXXXXXXXXXXXXXXXX...........XXXXXXXXXXXXXXXXXX",
"XXXXXXXXXXXXXXXXXXXXX..........XXXXXXXXXXXXXXXXXXX",
"XXXXXXXXXXXXXXXXXXXXX..........XXXXXXXXXXXXXXXXXXX",
"XXXXXXXXXXXXXXXXXXXXX..........XXXXXXXXXXXXXXXXXXX",
"XXXXXXXXXXXXXXXXXXXXX..........XXXXXXXXXXXXXXXXXXX",
"XXXXXXXXXXXXXXXXXXXXX..........XXXXXXXXXXXXXXXXXXX",
"XXXXXXXXXXXXXXXXXXXXX..........XXXXXXXXXXXXXXXXXXX",
"XXXXXXXXXXXXXXXXXXXXXX........XXXXXXXXXXXXXXXXXXXX",
"XXXXXXXXXXXXXXXXXXXXXX........XXXXXXXXXXXXXXXXXXXX",
"XXXXXXXXXXXXXXXXXXXXXX.......XXXXXXXXXXXXXXXXXXXXX",
"XXXXXXXXXXXXXXXXXXXXXXX......XXXXXXXXXXXXXXXXXXXXX",
"XXXXXXXXXXXXXXXXXXXXXXXXXXXXXXXXXXXXXXXXXXXXXXXXXX",
"XXXXXXXXXXXXXXXXXXXXXXXXXXXXXXXXXXXXXXXXXXXXXXXXXX",
"XXXXXXXXXXXXXXXXXXXXXXXXXXXXXXXXXXXXXXXXXXXXXXXXXX",
"XXXXXXXXXXXXXXXXXXXXXXXXXXXXXXXXXXXXXXXXXXXXXXXXXX",
"XXXXXXXXXXXXXXXXXXXXXXXXXXXXXXXXXXXXXXXXXXXXXXXXXX"
};
