/* XPM */
static char *_d5695715a5e4cb6b834b6f88d52ceablDuMBmqNIcNAw34s[] = {
/* columns rows colors chars-per-pixel */
"50 50 2 1 ",
"  c #5FB553",
". c #DDFFB6",
/* pixels */
"..................................................",
"..................................................",
"..................................................",
"..................................................",
"..................................................",
".......... .......................................",
".......... .... ..................................",
"......... . ..   .................................",
"......... . . .. .................................",
"......... .   .. .................................",
"........  .. ... .................................",
"........ .......  ................................",
"........ ........ ................................",
".......  ........ ................................",
"....... ......... ................................",
"...... ...........................................",
"............................... ..................",
"..............................  ...    ...........",
".............................. . .  ..  ..........",
".............................  .   .... ..........",
"............................. ..  ...... .........",
"............................. .......... .........",
"............................ ........... .........",
"............................ ...........  ........",
"...........................  ............ ........",
"........................... ......................",
"..................................................",
"..................................................",
"..................................................",
"..................................................",
"..................................................",
"............. ..... ..............................",
".............  ...   .............................",
"............ .  . .. .............................",
"............ ..   ... ............................",
"........... .... .... ............................",
"........... ......... ............................",
"........... .........  ...........................",
".......... .......................................",
"..................................................",
"..................................................",
"..................................................",
"..................................................",
"..................................................",
"..................................................",
"..................................................",
"..................................................",
"..................................................",
"..................................................",
".................................................."
};
