/* XPM */
static char *a0379203387f463fbc45d16f61cabc69OkoogMqyV3wmeCdx[] = {
/* columns rows colors chars-per-pixel */
"50 50 4 1 ",
"  c black",
". c #373D30",
"X c #DDFFB6",
"o c white",
/* pixels */
"XXXXXXXXXXXXXXXXXXXXXXXXXXXXXXXXXXXXXXXXXXXXXXXXXX",
"XXXXXXXXXXXXXXXXXXXXXXXXXXXXXXXXXXXXXXXXXXXXXXXXXX",
"XXXXXXXXXXXXXXXXXXXXXXXXXXXXXXXXXXXXXXXXXXXXXXXXXX",
"XXXXXXXXXXXXXXXXXXXXXXXXXXXXXXXXXXXXXXXXXXXXXXXXXX",
"XXXXXXXXXXXXXXXXXXXXXXXXXXXXXXXXXXXXXXXXXXXXXXXXXX",
"XXXXXXXXXXXXXXXXXXXX.........XXXXXXXXXXXXXXXXXXXXX",
"XXXXXXXXXXXXXXXXXX.............XXXXXXXXXXXXXXXXXXX",
"XXXXXXXXXXXXXXXX.................XXXXXXXXXXXXXXXXX",
"XXXXXXXXXXXXXXX...................XXXXXXXXXXXXXXXX",
"XXXXXXXXXXXXXX.....................XXXXXXXXXXXXXXX",
"XXXXXXXXXXXXX.......................XXXXXXXXXXXXXX",
"XXXXXXXXXXXX...................oo....XXXXXXXXXXXXX",
"XXXXXXXXXXXX....ooo..........oooo....XXXXXXXXXXXXX",
"XXXXXXXXXXX.....oooooo.....ooo oo.....XXXXXXXXXXXX",
"XXXXXXXXXXX......oo oo......oooo......XXXXXXXXXXXX",
"XXXXXXXXXXX.......ooo........oo.......XXXXXXXXXXXX",
"XXXXXXXXXXX...........................XXXXXXXXXXXX",
"XXXXXXXXXXX...........................XXXXXXXXXXXX",
"XXXXXXXXXXXX............o............XXXXXXXXXXXXX",
"XXXXXXXXXXXX...........ooo...........XXXXXXXXXXXXX",
"XXXXXXXXXXXXX..........oooo.........XXXXXXXXXXXXXX",
"XXXXXXXXXXXXXX........ooooo........XXXXXXXXXXXXXXX",
"XXXXXXXXXXXXXXX.......ooooo.......XXXXXXXXXXXXXXXX",
"XXXXXXXXXXXXXXXX.......ooo.......XXXXXXXXXXXXXXXXX",
"XXXXXXXXXXXXXXXXXX.............XXXXXXXXXXXXXXXXXXX",
"XXXXXXXXXXXXXXXXXXXX.........XXXXXXXXXXXXXXXXXXXXX",
"XXXXXXXXXXXXXXXXXXXXXXXX.XXXXXXXXXXXXXXXXXXXXXXXXX",
"XXXXXXXXXXXXXXXXXXXXXXXX.XXXXXXXXXXXXXXXXXXXXXXXXX",
"XXXXXXXXXXXXXXXXXXXXXX.......XXXXXXXXXXXXXXXXXXXXX",
"XXXXXXXXXXXXX..........X.XXX.........XXXXXXXXXXXXX",
"XXXXXXXXXX....XXXXXXXXXX.XXXXXXXXXXX.....XXXXXXXXX",
"XXXXXXXXX..XXXXXXXXXXXXX.XXXXXXXXXXXXXXX..XXXXXXXX",
"XXXXXXX..XXXXXXXXXXXXXXX.XXXXXXXXXXXXXXXX..XXXXXXX",
"XXXXXXX.XXXXXXXXXXXXXXXX.XXXXXXXXXXXXXXXXX..XXXXXX",
"XXXXXX..XXXXXXXXXXXXXXXX.XXXXXXXXXXXXXXXXXX.XXXXXX",
"XXXXXX.XXXXXXXXXXXXXXXXX.XXXXXXXXXXXXXXXXXX.XXXXXX",
"XXXXXX..XXXXXXXXXXXXXXXX.XXXXXXXXXXXXXXXXX..XXXXXX",
"XXXXXXXXXXXXXXXXXXXXXXXX.XXXXXXXXXXXXXXXXX.XXXXXXX",
"XXXXXXXXXXXXXXXXXXXXXXXX.XXXXXXXXXXXXXXXXXXXXXXXXX",
"XXXXXXXXXXXXXXXXXXXXXXXX.XXXXXXXXXXXXXXXXXXXXXXXXX",
"XXXXXXXXXXXXXXXXXXXXXXX..XXXXXXXXXXXXXXXXXXXXXXXXX",
"XXXXXXXXXXXXXXXXXXXXXXX.X.XXXXXXXXXXXXXXXXXXXXXXXX",
"XXXXXXXXXXXXXXXXXXXXXX..X..XXXXXXXXXXXXXXXXXXXXXXX",
"XXXXXXXXXXXXXXXXXXXXX..XXX.XXXXXXXXXXXXXXXXXXXXXXX",
"XXXXXXXXXXXXXXXXXXXXX.XXXX..XXXXXXXXXXXXXXXXXXXXXX",
"XXXXXXXXXXXXXXXXXXX..XXXXXXX..XXXXXXXXXXXXXXXXXXXX",
"XXXXXXXXXXXXXXXXXX..XXXXXXXXX..XXXXXXXXXXXXXXXXXXX",
"XXXXXXXXXXXXXXXXX..XXXXXXXXXXX...XXXXXXXXXXXXXXXXX",
"XXXXXXXXXXXXXXX...XXXXXXXXXXXXXX..XXXXXXXXXXXXXXXX",
"XXXXXXXXXXXXXXXXXXXXXXXXXXXXXXXXXXXXXXXXXXXXXXXXXX"
};
