/* XPM */
static char *f1e53113a8464400a5acda0359c26f6cJagZvn4ft4mqftSW[] = {
/* columns rows colors chars-per-pixel */
"50 50 3 1 ",
"  c red",
". c #A36E2C",
"X c #DDFFB6",
/* pixels */
"XXXXXXXXXXXXXXXX..  XXXXXXXXXXXXXXXXXXXXXXXXXXXXXX",
"XXXXXXXXXXXXXXXX..      XXXXXXXXXXXXXXXXXXXXXXXXXX",
"XXXXXXXXXXXXXXXX..        XXXXXXXXXXXXXXXXXXXXXXXX",
"XXXXXXXXXXXXXXXX..          XXXXXXXXXXXXXXXXXXXXXX",
"XXXXXXXXXXXXXXXX..             XXXXXXXXXXXXXXXXXXX",
"XXXXXXXXXXXXXXXX..               XXXXXXXXXXXXXXXXX",
"XXXXXXXXXXXXXXXX..                  XXXXXXXXXXXXXX",
"XXXXXXXXXXXXXXXX..                    XXXXXXXXXXXX",
"XXXXXXXXXXXXXXXX..                        XXXXXXXX",
"XXXXXXXXXXXXXXXX..                          XXXXXX",
"XXXXXXXXXXXXXXXX..                             XXX",
"XXXXXXXXXXXXXXXX..                              XX",
"XXXXXXXXXXXXXXXX..                                ",
"XXXXXXXXXXXXXXXX..                               X",
"XXXXXXXXXXXXXXXX..                              XX",
"XXXXXXXXXXXXXXXX..                             XXX",
"XXXXXXXXXXXXXXXX..                           XXXXX",
"XXXXXXXXXXXXXXXX..                        XXXXXXXX",
"XXXXXXXXXXXXXXXX..                      XXXXXXXXXX",
"XXXXXXXXXXXXXXXX..                    XXXXXXXXXXXX",
"XXXXXXXXXXXXXXXX..                 XXXXXXXXXXXXXXX",
"XXXXXXXXXXXXXXXX..              XXXXXXXXXXXXXXXXXX",
"XXXXXXXXXXXXXXXX..            XXXXXXXXXXXXXXXXXXXX",
"XXXXXXXXXXXXXXXX..         XXXXXXXXXXXXXXXXXXXXXXX",
"XXXXXXXXXXXXXXXX..      XXXXXXXXXXXXXXXXXXXXXXXXXX",
"XXXXXXXXXXXXXXXX..    XXXXXXXXXXXXXXXXXXXXXXXXXXXX",
"XXXXXXXXXXXXXXXX..  XXXXXXXXXXXXXXXXXXXXXXXXXXXXXX",
"XXXXXXXXXXXXXXXX..XXXXXXXXXXXXXXXXXXXXXXXXXXXXXXXX",
"XXXXXXXXXXXXXXXX..XXXXXXXXXXXXXXXXXXXXXXXXXXXXXXXX",
"XXXXXXXXXXXXXXXX..XXXXXXXXXXXXXXXXXXXXXXXXXXXXXXXX",
"XXXXXXXXXXXXXXXX..XXXXXXXXXXXXXXXXXXXXXXXXXXXXXXXX",
"XXXXXXXXXXXXXXXX..XXXXXXXXXXXXXXXXXXXXXXXXXXXXXXXX",
"XXXXXXXXXXXXXXXX..XXXXXXXXXXXXXXXXXXXXXXXXXXXXXXXX",
"XXXXXXXXXXXXXXXX..XXXXXXXXXXXXXXXXXXXXXXXXXXXXXXXX",
"XXXXXXXXXXXXXXXX..XXXXXXXXXXXXXXXXXXXXXXXXXXXXXXXX",
"XXXXXXXXXXXXXXXX..XXXXXXXXXXXXXXXXXXXXXXXXXXXXXXXX",
"XXXXXXXXXXXXXXXX..XXXXXXXXXXXXXXXXXXXXXXXXXXXXXXXX",
"XXXXXXXXXXXXXXXX..XXXXXXXXXXXXXXXXXXXXXXXXXXXXXXXX",
"XXXXXXXXXXXXXXXX..XXXXXXXXXXXXXXXXXXXXXXXXXXXXXXXX",
"XXXXXXXXXXXXXXXX..XXXXXXXXXXXXXXXXXXXXXXXXXXXXXXXX",
"XXXXXXXXXXXXXXXX..XXXXXXXXXXXXXXXXXXXXXXXXXXXXXXXX",
"XXXXXXXXXXXXXXXX..XXXXXXXXXXXXXXXXXXXXXXXXXXXXXXXX",
"XXXXXXXXXXXXXXXX..XXXXXXXXXXXXXXXXXXXXXXXXXXXXXXXX",
"XXXXXXXXXXXXXXXX..XXXXXXXXXXXXXXXXXXXXXXXXXXXXXXXX",
"XXXXXXXXXXXXXXXX..XXXXXXXXXXXXXXXXXXXXXXXXXXXXXXXX",
"XXXXXXXXXXXXXXXX..XXXXXXXXXXXXXXXXXXXXXXXXXXXXXXXX",
"XXXXXXXXXXXXXXXX..XXXXXXXXXXXXXXXXXXXXXXXXXXXXXXXX",
"XXXXXXXXXXXXXXXX..XXXXXXXXXXXXXXXXXXXXXXXXXXXXXXXX",
"XXXXXXXXXXXXXXXX..XXXXXXXXXXXXXXXXXXXXXXXXXXXXXXXX",
"XXXXXXXXXXXXXXXX..XXXXXXXXXXXXXXXXXXXXXXXXXXXXXXXX"
};
