/* XPM */
static char *_a1023064c7947298b92b73789ba58c4yvPf8BFOhT84GeFU[] = {
/* columns rows colors chars-per-pixel */
"50 50 2 1 ",
"  c #0091FF",
". c #DDFFB6",
/* pixels */
"..................................................",
"..................................................",
"..................................................",
".......................  .........................",
"......................   .........................",
"......................    ........................",
"......................    ........................",
".....................      .......................",
".....................      .......................",
".....................      .......................",
"....................        ......................",
"....................        ......................",
"....................        ......................",
"....................         .....................",
"...................           ....................",
"...................             ..................",
"................                  ................",
".............                        .............",
"..........                             ...........",
"........                                ..........",
"......                                   .........",
".....                                      .......",
".....                                        .....",
"....                                          ....",
"....                                          ....",
"...                               ...         ....",
"....      .....                 .......       ....",
"....   .........               ..........    .....",
"................               ...................",
"................               ...................",
"................                ..................",
"................                ..................",
"...............         .        .................",
"...............        ..         ................",
"..............         ...         ...............",
"..............         ...          ..............",
".............          ....          .............",
"............           ....           ............",
"............           ....           ............",
"...........           ......           ...........",
"..........            ......           ...........",
"..........           ........           ..........",
".........           ..........          ..........",
".........          ............         ..........",
".........        ...............        ..........",
"..................................................",
"..................................................",
"..................................................",
"..................................................",
".................................................."
};
