/* XPM */
static char *_c4e69bca0c84fdaacdf49ed57361543V4lNZ4Gi8hUpX7XI[] = {
/* columns rows colors chars-per-pixel */
"50 50 3 1 ",
"  c #A9BABA",
". c #DDFFB6",
"X c #D3E3E3",
/* pixels */
"..................................................",
"..................................................",
"..................................................",
"..................       .........................",
"..............                 ...................",
".............                   ..................",
"...........                     ..................",
"..........                       .................",
".........                        .................",
"........                          ................",
".......                           ................",
"......                            ................",
"......                             ...............",
".....                                    .........",
"....                                      ........",
"....                                       .......",
"...                                        .......",
"..             XX                           ......",
"..            XXXX                          ......",
"..           XX  XX                         ......",
".           X     X                         ......",
".                                           ......",
".                                           ......",
".                            XXXX           ......",
".                           XX  X           ......",
"                           X    X            .....",
"                                              ....",
"                                               ...",
"                                               ...",
"                                                ..",
"               XX                               ..",
"             XXXX                                .",
"            XX  XX                               .",
"           XX    XX                              .",
"           X                                     .",
"                                 XXX             .",
"                                X  XX            .",
"                               X    X            .",
"                              X     XX           .",
".                             X                  .",
"..                                               .",
"..                                              ..",
"...                                             ..",
"....                                           ...",
".....                                          ...",
".......                                       ....",
".........                                  .......",
"..............                         ...........",
"..................................................",
".................................................."
};
