/* XPM */
static char *_0e95bdf922a4b24ab95125b2744cf09IHo99R0W42KvavEl[] = {
/* columns rows colors chars-per-pixel */
"50 51 4 1 ",
"  c #373D30",
". c #0091FF",
"X c #DDFFB6",
"o c white",
/* pixels */
"XXXXXXXXXXXXXXXXXXXXXXXXXXXXXXXXXXXXXXXXXXXXXXXXXX",
"XXXXXXXXXXXXXXXXXXXXXXXXXXXXXXXXXXXXXXXXXXXXXXXXXX",
"XXXXXXXXXXXXXXXXXXXXXXXXXXXXXXXXXXXXXXXXXXXXXXXXXX",
"XXXXXXXXXXXXXXXXXXXXXXX.....XXXXXXXXXXXXXXXXXXXXXX",
"XXXXXXXXXXXXXXXXXXXXXX..........XXXXXXXXXXXXXXXXXX",
"XXXXXXXXXXXXXXXXXXXXX.............XXXXXXXXXXXXXXXX",
"XXXXXXXXXXXXXXXXXXXXX..............XXXXXXXXXXXXXXX",
"XXXXXXXXXXXXXXXXXXXXX...............XXXXXXXXXXXXXX",
"XXXXXXXXXXXXXXXXXXXX.................XXXXXXXXXXXXX",
"XXXXXXXXXXXXXXXXXXXX.................XXXXXXXXXXXXX",
"XXXXXXXXXXXXXXXXXXX.................XXXXXXXXXXXXXX",
"XXXXXXXXXXXXXXXXXXX............XXXXXXXXXXXXXXXXXXX",
"XXXXXXXXXXXXXXXXXX.............XXXXXXXXXXXXXXXXXXX",
"XXXXXXXXXXXXXXXXXX............XXXXXXXXXXXXXXXXXXXX",
"XXXXXXXXXXXXXXXXXX............XXXXXXXXXXXXXXXXXXXX",
"XXXXXXXXXXXXXXXXXX............XXXXXXXXXXXXXXXXXXXX",
"XXXXXXXXXXXXXXXXXXX............XXXXXXXXXXXXXXXXXXX",
"XXXXXXXXXXXXXXXXXX.............XXXXXXXXXXXXXXXXXXX",
"XXXXXXXXXXXXXXXXXX.......   ...XXXXXXXXXXXXXXXXXXX",
"XXXXXXXXXXXXXXXXXX....... o ...XXXXXXXXXXXXXXXXXXX",
"XXXXXXXXXXXXXXXXXX.......   ...XXXXXXXXXXXXXXXXXXX",
"XXXXXXXXXXXXXXXXXX.............XXXXXXXXXXXXXXXXXXX",
"XXXXXXXXXXXXXXXXX..............XXXXXXXXXXXXXXXXXXX",
"XXXXXXXXXXXXXXXXX.............XXXXXXXXXXXXXXXXXXXX",
"XXXXXXXXXXXXXXXXX.............XXXXXXXXXXXXXXXXXXXX",
"XXXXXXXXXXXXXXXXX..........   XXXXXXXXXXXXXXXXXXXX",
"XXXXXXXXXXXXXXXXX.........  ooXXXXXXXXXXXXXXXXXXXX",
"XXXXXXXXXXXXXXXXX......... oooXXXXXXXXXXXXXXXXXXXX",
"XXXXXXXXXXXXXXXXX.........  ooXXXXXXXXXXXXXXXXXXXX",
"XXXXXXXXXXXXXXXXX..........  oXXXXXXXXXXXXXXXXXXXX",
"XXXXXXXXXXXXXXXXX...........  XXXXXXXXXXXXXXXXXXXX",
"XXXXXXXXXXXXXXXXX.............XXXXXXXXXXXXXXXXXXXX",
"XXXXXXXXXXXXXXXXX.............XXXXXXXXXXXXXXXXXXXX",
"XXXXXXXXXXXXXXXXXX............XXXXXXXXXXXXXXXXXXXX",
"XXXXXXXXXXXXXXXXXX...........XXXXXXXXXXXXXXXXXXXXX",
"XXXXXXXXXXXXXXXXXX...........XXXXXXXXXXXXXXXXXXXXX",
"XXXXXXXXXXXXXXXXXXX..........XXXXXXXXXXXXXXXXXXXXX",
"XXXXXXXXXXXXXXXXXXX..........XXXXXXXXXXXXXXXXXXXXX",
"XXXXXXXXXXXXXXXXXXX..........XXXXXXXXXXXXXXXXXXXXX",
"XXXXXXXXXXXXXXXXXXX..........XXXXXXXXXXXXXXXXXXXXX",
"XXXXXXXXXXXXXXXXXXX..........XXXXXXXXXXXXXXXXXXXXX",
"XXXXXXXXXXXXXXXXXXX..........XXXXXXXXXXXXXXXXXXXXX",
"XXXXXXXXXXXXXXXXXXXX........XXXXXXXXXXXXXXXXXXXXXX",
"XXXXXXXXXXXXXXXXXXXX........XXXXXXXXXXXXXXXXXXXXXX",
"XXXXXXXXXXXXXXXXXXXXX.......XXXXXXXXXXXXXXXXXXXXXX",
"XXXXXXXXXXXXXXXXXXXXX......XXXXXXXXXXXXXXXXXXXXXXX",
"XXXXXXXXXXXXXXXXXXXXXXXXXXXXXXXXXXXXXXXXXXXXXXXXXX",
"XXXXXXXXXXXXXXXXXXXXXXXXXXXXXXXXXXXXXXXXXXXXXXXXXX",
"XXXXXXXXXXXXXXXXXXXXXXXXXXXXXXXXXXXXXXXXXXXXXXXXXX",
"XXXXXXXXXXXXXXXXXXXXXXXXXXXXXXXXXXXXXXXXXXXXXXXXXX",
"XXXXXXXXXXXXXXXXXXXXXXXXXXXXXXXXXXXXXXXXXXXXXXXXXX"
};
