/* XPM */
static char *_c2a4d90543f4aa2b75d4ff3ea5d3f05zNLJYxUPvoNFJjij[] = {
/* columns rows colors chars-per-pixel */
"50 50 4 1 ",
"  c black",
". c #0091FF",
"X c #DDFFB6",
"o c white",
/* pixels */
"XXXXXXXXXXXXXXXXXXXXXXXXXXXXXXXXXXXXXXXXXXXXXXXXXX",
"XXXXXXXXXXXXXXXXXXXXXXXXXXXXXXXXXXXXXXXXXXXXXXXXXX",
"XXXXXXXXXXXXXXXXXXXXXXXXXXXXXXXXXXXXXXXXXXXXXXXXXX",
"XXXXXXXXXXXXXXXXXXXXXXXXX..XXXXXXXXXXXXXXXXXXXXXXX",
"XXXXXXXXXXXXXXXXXXXXXXXXX...XXXXXXXXXXXXXXXXXXXXXX",
"XXXXXXXXXXXXXXXXXXXXXXXX....XXXXXXXXXXXXXXXXXXXXXX",
"XXXXXXXXXXXXXXXXXXXXXXXX....XXXXXXXXXXXXXXXXXXXXXX",
"XXXXXXXXXXXXXXXXXXXXXXX......XXXXXXXXXXXXXXXXXXXXX",
"XXXXXXXXXXXXXXXXXXXXXXX......XXXXXXXXXXXXXXXXXXXXX",
"XXXXXXXXXXXXXXXXXXXXXXX......XXXXXXXXXXXXXXXXXXXXX",
"XXXXXXXXXXXXXXXXXXXXXX........XXXXXXXXXXXXXXXXXXXX",
"XXXXXXXXXXXXXXXXXXXXXX........XXXXXXXXXXXXXXXXXXXX",
"XXXXXXXXXXXXXXXXXXXXXX........XXXXXXXXXXXXXXXXXXXX",
"XXXXXXXXXXXXXXXXXXXXX.........XXXXXXXXXXXXXXXXXXXX",
"XXXXXXXXXXXXXXXXXXXX...........XXXXXXXXXXXXXXXXXXX",
"XXXXXXXXXXXXXXXXXX.............XXXXXXXXXXXXXXXXXXX",
"XXXXXXXXXXXXXXXX..................XXXXXXXXXXXXXXXX",
"XXXXXXXXXXXXX........................XXXXXXXXXXXXX",
"XXXXXXXXXXX.............................XXXXXXXXXX",
"XXXXXXXXXX...........   ....   ...........XXXXXXXX",
"XXXXXXXXX............ o .... o .............XXXXXX",
"XXXXXXX..............   ....   ..............XXXXX",
"XXXXX........................................XXXXX",
"XXXX..........................................XXXX",
"XXXX..........................................XXXX",
"XXXX.........XXX.........   ...................XXX",
"XXXX.......XXXXXXX......  o  ......XXXXX......XXXX",
"XXXXX....XXXXXXXXXX....  ooo .....XXXXXXXXX...XXXX",
"XXXXXXXXXXXXXXXXXXX.... oooo .....XXXXXXXXXXXXXXXX",
"XXXXXXXXXXXXXXXXXXX....      .....XXXXXXXXXXXXXXXX",
"XXXXXXXXXXXXXXXXXX................XXXXXXXXXXXXXXXX",
"XXXXXXXXXXXXXXXXXX................XXXXXXXXXXXXXXXX",
"XXXXXXXXXXXXXXXXX........X.........XXXXXXXXXXXXXXX",
"XXXXXXXXXXXXXXXX.........XX........XXXXXXXXXXXXXXX",
"XXXXXXXXXXXXXXX.........XXX.........XXXXXXXXXXXXXX",
"XXXXXXXXXXXXXX..........XXX.........XXXXXXXXXXXXXX",
"XXXXXXXXXXXXX..........XXXX..........XXXXXXXXXXXXX",
"XXXXXXXXXXXX...........XXXX...........XXXXXXXXXXXX",
"XXXXXXXXXXXX...........XXXX...........XXXXXXXXXXXX",
"XXXXXXXXXXX...........XXXXXX...........XXXXXXXXXXX",
"XXXXXXXXXXX...........XXXXXX............XXXXXXXXXX",
"XXXXXXXXXX...........XXXXXXXX...........XXXXXXXXXX",
"XXXXXXXXXX..........XXXXXXXXXX...........XXXXXXXXX",
"XXXXXXXXXX.........XXXXXXXXXXXX..........XXXXXXXXX",
"XXXXXXXXXX........XXXXXXXXXXXXXXX........XXXXXXXXX",
"XXXXXXXXXXXXXXXXXXXXXXXXXXXXXXXXXXXXXXXXXXXXXXXXXX",
"XXXXXXXXXXXXXXXXXXXXXXXXXXXXXXXXXXXXXXXXXXXXXXXXXX",
"XXXXXXXXXXXXXXXXXXXXXXXXXXXXXXXXXXXXXXXXXXXXXXXXXX",
"XXXXXXXXXXXXXXXXXXXXXXXXXXXXXXXXXXXXXXXXXXXXXXXXXX",
"XXXXXXXXXXXXXXXXXXXXXXXXXXXXXXXXXXXXXXXXXXXXXXXXXX"
};
